<?xml version="1.0" encoding="UTF-8"?><svg id="Layer_1" xmlns="http://www.w3.org/2000/svg" viewBox="0 0 576.16 586.88"><defs><style>.cls-1{fill:#fff;}.cls-2{fill:#f93;}.cls-3{fill:#58b8ee;}</style></defs><path class="cls-2" d="m549.02,168.75c15,34.77,23.34,73.14,23.34,113.48,0,157.06-126.08,284.38-281.61,284.38-83.94,0-159.29-37.09-210.88-95.92l36.41-29.38.78,1.06c1.12,1.51,3.24,1.83,4.75.71l1.5-1.11c1.51-1.12,1.83-3.24.71-4.75l-1-1.35.93-.75,1.03,1.39c1.12,1.51,3.24,1.83,4.75.71l6.03-4.47c1.51-1.12,1.83-3.24.71-4.75l-1.38-1.87.98-.79,1.41,1.91c1.12,1.51,3.24,1.83,4.75.71l6.04-4.47c1.51-1.12,1.83-3.24.71-4.75l-1.77-2.39,1.06-.85,1.8,2.43c1.12,1.51,3.24,1.83,4.75.71l2.23-1.65,8.05,10.34c3.7,4.76,10.56,5.61,15.32,1.9l14.06-10.95c8.03,3.96,16.94,6.25,26.35,6.43,17.31.32,33.2-6.53,45.19-17.99,4.15,4.16,10.84,4.72,15.65,1.06l16.75-12.76c5.24-3.99,6.26-11.47,2.27-16.72l-15.61-20.51,45.26-33.9-.08-.11c2.93-2.06,4.85-5.47,4.84-9.32,0-6.29-5.11-11.38-11.4-11.38-2.68,0-5.14.94-7.08,2.49l-.03-.04-45.4,34.01-30.31-39.82,45.91-34.38-.08-.11c2.93-2.06,4.85-5.47,4.84-9.32,0-6.29-5.11-11.38-11.4-11.38-2.68,0-5.14.94-7.08,2.49l-.03-.04-46.05,34.49-16.9-22.2c-3.99-5.24-11.47-6.26-16.72-2.27l-16.75,12.76c-4.56,3.47-5.92,9.59-3.57,14.58.02.05.05.09.08.14-19.1,11.83-31.7,32.06-31.7,55.05,0,3.35.27,6.63.78,9.84l-14.91,11.61c-4.76,3.7-5.61,10.56-1.9,15.32l10.77,13.82-1.69,1.37s0-.02-.02-.03l-2.01-2.71c-1.12-1.51-3.24-1.83-4.75-.71l-6.04,4.47c-1.51,1.12-1.83,3.24-.71,4.75l2.01,2.71c.13.17.27.32.42.46l-1.05.85c-.09-.2-.21-.4-.35-.59l-2.01-2.71c-1.12-1.51-3.24-1.83-4.75-.71l-6.03,4.47c-1.51,1.12-1.83,3.24-.71,4.75l2.01,2.71c.27.36.59.64.95.87l-1.36,1.1c-.1-.43-.29-.85-.57-1.23l-2.01-2.71c-1.12-1.51-3.24-1.83-4.75-.71l-6.03,4.47c-1.51,1.12-1.83,3.24-.71,4.75l2.01,2.71c.42.56.98.96,1.59,1.18l-53.24,42.97.07.08-3.27,2.5c53.53,73.75,140.42,121.7,238.51,121.7,162.66,0,294.52-131.86,294.52-294.52,0-44.15-9.73-86.03-27.14-123.62Z"/><path class="cls-3" d="m532.47,126.9l3.31-2.42C483.45,50.55,397.34,1.63,299.26.04,136.62-2.6,2.66,125.88.04,287.01c-.71,43.74,8.35,85.38,25.15,122.9-14.44-34.68-22.16-72.83-21.51-112.79C6.21,141.53,134.33,17.45,289.84,19.98c83.93,1.36,158.67,39.33,209.31,98.45l-35.06,27.11-1.07-1.45c-1.12-1.51-3.24-1.83-4.75-.71l-1.5,1.11c-1.51,1.12-1.83,3.24-.71,4.75l1.18,1.59-.94.73-1.19-1.61c-1.12-1.51-3.24-1.83-4.75-.71l-6.04,4.47c-1.51,1.12-1.83,3.24-.71,4.75l1.37,1.85-1,.77-1.39-1.87c-1.12-1.51-3.24-1.83-4.75-.71l-6.04,4.47c-1.51,1.12-1.83,3.24-.71,4.75l1.56,2.11-1.07.83-1.58-2.13c-1.12-1.51-3.24-1.83-4.75-.71l-2.82,2.09-7.69-9.87c-3.7-4.76-10.56-5.61-15.32-1.9l-14.06,10.95c-8.03-3.96-16.94-6.25-26.35-6.43-17.31-.32-33.2,6.53-45.19,17.99-4.15-4.16-10.84-4.72-15.65-1.06l-16.75,12.76c-5.24,3.99-6.26,11.47-2.27,16.72l15.61,20.51,13.89,18.25,30.31,39.82,13.89,18.25,16.9,22.2c3.99,5.24,11.47,6.26,16.72,2.27l16.75-12.76c4.56-3.47,5.92-9.59,3.57-14.58-.02-.05-.05-.09-.08-.14,19.1-11.83,31.7-32.06,31.7-55.05,0-3.35-.27-6.63-.78-9.84l14.91-11.61c4.76-3.7,5.61-10.56,1.9-15.32l-11.52-14.8,2.37-1.83c.09.19.2.38.33.55l2.01,2.71c1.12,1.51,3.24,1.83,4.75.71l6.03-4.47c1.51-1.12,1.83-3.24.71-4.75l-2.01-2.71c-.19-.26-.43-.47-.67-.66l1.2-.93c.11.3.25.6.45.87l2.01,2.71c1.12,1.51,3.24,1.83,4.75.71l6.04-4.47c1.51-1.12,1.83-3.24.71-4.75l-2.01-2.71c-.26-.36-.59-.64-.94-.86l1.37-1.06c.11.42.29.82.56,1.19l2.01,2.71c1.12,1.51,3.24,1.83,4.75.71l6.04-4.47c1.51-1.12,1.83-3.24.71-4.75l-2.01-2.71c-.34-.46-.78-.79-1.26-1.02l51.72-39.99-.06-.08Z"/><polygon class="cls-1" points="259.99 334.16 188.23 346.39 198.79 358.36 154.97 375.81 226.72 363.58 216.16 351.61 259.99 334.16"/></svg>